<svg width="17" height="17" viewBox="0 0 17 17" fill="none" xmlns="http://www.w3.org/2000/svg">
<path fill-rule="evenodd" clip-rule="evenodd" d="M8.04056 0.264116L5.97596 2.74164H2.55322C2.1677 2.74164 1.87445 3.08781 1.93783 3.46808L2.33666 5.86104L0.144619 8.49148C-0.0790879 8.75993 -0.0387057 9.15976 0.234163 9.37805L2.33666 11.06V14.0755C2.33666 14.42 2.61598 14.6993 2.96054 14.6993H5.97596L7.56839 16.6899C7.81815 17.0021 8.29297 17.0021 8.54273 16.6899L10.1352 14.6993H13.6705C14.015 14.6993 14.2944 14.42 14.2944 14.0755V11.06L16.3969 9.37805C16.6697 9.15976 16.7101 8.75993 16.4864 8.49148L14.2944 5.86104V3.36552C14.2944 3.02096 14.015 2.74164 13.6705 2.74164H10.6551L9.03894 0.317448C8.80761 -0.0295411 8.30754 -0.0562548 8.04056 0.264116ZM10.1352 5.86093L4.93616 12.0997L5.73496 12.7654L10.934 6.52659L10.1352 5.86093ZM8.05556 5.86099C8.05556 6.43526 7.59003 6.90079 7.01576 6.90079C6.4415 6.90079 5.97596 6.43526 5.97596 5.86099C5.97596 5.28673 6.4415 4.82119 7.01576 4.82119C7.59003 4.82119 8.05556 5.28673 8.05556 5.86099ZM10.1352 13.1395C10.7094 13.1395 11.175 12.674 11.175 12.0997C11.175 11.5254 10.7094 11.0599 10.1352 11.0599C9.5609 11.0599 9.09536 11.5254 9.09536 12.0997C9.09536 12.674 9.5609 13.1395 10.1352 13.1395Z" fill="white"/>
</svg>
