<svg width="33" height="33" viewBox="0 0 33 33" fill="none" xmlns="http://www.w3.org/2000/svg">
<path d="M32.4375 8.53125C32.5784 8.53125 32.7135 8.47528 32.8132 8.37565C32.9128 8.27602 32.9688 8.1409 32.9688 8V5.875C32.9688 5.7341 32.9128 5.59898 32.8132 5.49935C32.7135 5.39972 32.5784 5.34375 32.4375 5.34375H31.5344L23.7011 0.1205C23.6137 0.0624557 23.5112 0.031416 23.4062 0.03125H9.59375C9.48884 0.031416 9.3863 0.0624557 9.29891 0.1205L1.46563 5.34375H0.5625C0.421604 5.34375 0.286478 5.39972 0.18685 5.49935C0.0872208 5.59898 0.03125 5.7341 0.03125 5.875V8C0.03125 8.1409 0.0872208 8.27602 0.18685 8.37565C0.286478 8.47528 0.421604 8.53125 0.5625 8.53125H1.09375V21.0427C0.77156 21.2282 0.503796 21.4951 0.31731 21.8167C0.130824 22.1383 0.032173 22.5032 0.03125 22.875C0.03125 23.2977 0.199162 23.7031 0.498049 24.002C0.796935 24.3008 1.20231 24.4688 1.625 24.4688H5.875C6.29769 24.4688 6.70307 24.3008 7.00195 24.002C7.30084 23.7031 7.46875 23.2977 7.46875 22.875C7.46818 22.6956 7.44461 22.5171 7.39862 22.3438H8V23.9375C8 24.0784 8.05597 24.2135 8.1556 24.3132C8.25523 24.4128 8.39035 24.4688 8.53125 24.4688H10.6562C10.7971 24.4688 10.9323 24.4128 11.0319 24.3132C11.1315 24.2135 11.1875 24.0784 11.1875 23.9375V22.3438H13.0591L11.2528 26.8647C3.92956 27.6642 0.03125 30.1101 0.03125 32.4375C0.03125 32.5784 0.0872208 32.7135 0.18685 32.8132C0.286478 32.9128 0.421604 32.9688 0.5625 32.9688H6.9375C7.0784 32.9688 7.21352 32.9128 7.31315 32.8132C7.41278 32.7135 7.46875 32.5784 7.46875 32.4375C7.46875 31.3283 10.9043 29.7812 16.5 29.7812C22.0957 29.7812 25.5312 31.3283 25.5312 32.4375C25.5312 32.5784 25.5872 32.7135 25.6868 32.8132C25.7865 32.9128 25.9216 32.9688 26.0625 32.9688H32.4375C32.5784 32.9688 32.7135 32.9128 32.8132 32.8132C32.9128 32.7135 32.9688 32.5784 32.9688 32.4375C32.9688 30.1101 29.0704 27.6642 21.7493 26.8647L19.9409 22.3438H21.8125V23.9375C21.8125 24.0784 21.8685 24.2135 21.9681 24.3132C22.0677 24.4128 22.2029 24.4688 22.3438 24.4688H24.4688C24.6096 24.4688 24.7448 24.4128 24.8444 24.3132C24.944 24.2135 25 24.0784 25 23.9375V22.3438H25.6014C25.5554 22.5171 25.5318 22.6956 25.5312 22.875C25.5312 23.2977 25.6992 23.7031 25.998 24.002C26.2969 24.3008 26.7023 24.4688 27.125 24.4688H31.375C31.7977 24.4688 32.2031 24.3008 32.5019 24.002C32.8008 23.7031 32.9688 23.2977 32.9688 22.875C32.9678 22.5032 32.8692 22.1383 32.6827 21.8167C32.4962 21.4951 32.2284 21.2282 31.9062 21.0427V8.53125H32.4375ZM31.9062 7.46875H23.1937L21.745 6.40625H31.9062V7.46875ZM9.0625 10.6562V9.59375H23.9375V10.6562H9.0625ZM16.5 3.8775L22.8458 8.53125H20.3893L16.8087 5.97381C16.7186 5.90951 16.6107 5.87495 16.5 5.87495C16.3893 5.87495 16.2814 5.90951 16.1913 5.97381L12.6107 8.53125H10.1542L16.5 3.8775ZM18.5607 8.53125H14.4393L16.5 7.05916L18.5607 8.53125ZM9.75312 1.09375H23.2469L29.6219 5.34375H20.2963L16.814 2.79003C16.7229 2.7233 16.6129 2.68733 16.5 2.68733C16.3871 2.68733 16.2771 2.7233 16.186 2.79003L12.7037 5.34375H3.37813L9.75312 1.09375ZM1.09375 6.40625H11.255L9.80625 7.46875H1.09375V6.40625ZM5.875 23.4062H1.625C1.4841 23.4062 1.34898 23.3503 1.24935 23.2507C1.14972 23.151 1.09375 23.0159 1.09375 22.875C1.09372 22.5959 1.20347 22.3281 1.39929 22.1293C1.59512 21.9305 1.86129 21.8167 2.14031 21.8125C2.15412 21.8125 2.21044 21.821 2.22372 21.8215C2.31185 21.8282 2.40022 21.8122 2.48039 21.775C2.56057 21.7378 2.62986 21.6806 2.68166 21.609C2.73442 21.5384 2.76879 21.4559 2.78168 21.3687C2.79457 21.2815 2.78557 21.1925 2.7555 21.1097C2.70127 20.9755 2.67857 20.8306 2.68916 20.6863C2.69976 20.542 2.74335 20.402 2.81659 20.2772C2.88865 20.1379 2.98939 20.0154 3.11217 19.9178C3.23496 19.8202 3.37701 19.7497 3.529 19.7109C3.78654 19.6543 4.05597 19.6992 4.28125 19.8363C4.36239 19.8835 4.45459 19.9083 4.54847 19.9083C4.64235 19.9083 4.73455 19.8835 4.81569 19.8363C5.04478 19.6967 5.31969 19.6532 5.58069 19.7151C5.78004 19.7637 5.96164 19.8675 6.10459 20.0147C6.24753 20.1618 6.34602 20.3464 6.38872 20.5471C6.42001 20.7083 6.413 20.8747 6.36825 21.0328C6.3235 21.1908 6.24225 21.3362 6.13106 21.4571C6.04326 21.5546 5.99467 21.6812 5.99467 21.8125C5.99467 21.9438 6.04326 22.0704 6.13106 22.1679C6.30761 22.3611 6.40574 22.6133 6.40625 22.875C6.40625 23.0159 6.35028 23.151 6.25065 23.2507C6.15102 23.3503 6.0159 23.4062 5.875 23.4062ZM7.39119 21.2812C7.4735 20.9782 7.48729 20.6606 7.43156 20.3516C7.35128 19.9479 7.15699 19.5758 6.87169 19.2792C6.5864 18.9826 6.22208 18.774 5.82187 18.6781C5.39638 18.5772 4.94979 18.6144 4.54688 18.7844C4.15378 18.6197 3.71942 18.5806 3.30322 18.6723C2.8549 18.7772 2.45255 19.0243 2.15625 19.3767V8.53125H8.357L8.21728 8.63378C8.14992 8.68314 8.09514 8.74767 8.05738 8.82216C8.01963 8.89665 7.99997 8.97899 8 9.0625V21.2812H7.39119ZM9.0625 23.4062V11.7188H10.125V23.4062H9.0625ZM19.6875 21.2812H18.625V17.0312C18.625 16.4677 18.4011 15.9272 18.0026 15.5286C17.6041 15.1301 17.0636 14.9062 16.5 14.9062C15.9364 14.9062 15.3959 15.1301 14.9974 15.5286C14.5989 15.9272 14.375 16.4677 14.375 17.0312V21.2812H13.3125V17.0312C13.3125 16.1859 13.6483 15.3751 14.2461 14.7773C14.8439 14.1796 15.6546 13.8438 16.5 13.8438C17.3454 13.8438 18.1561 14.1796 18.7539 14.7773C19.3517 15.3751 19.6875 16.1859 19.6875 17.0312V21.2812ZM17.5625 21.2812H15.4375V17.0312C15.4375 16.7495 15.5494 16.4792 15.7487 16.2799C15.948 16.0807 16.2182 15.9688 16.5 15.9688C16.7818 15.9688 17.052 16.0807 17.2513 16.2799C17.4506 16.4792 17.5625 16.7495 17.5625 17.0312V21.2812ZM31.7931 31.9062H26.5061C25.8054 29.8344 21.0215 28.7188 16.5 28.7188C11.9785 28.7188 7.19462 29.8344 6.49391 31.9062H1.20691C2.09516 29.7993 8.1275 27.6562 16.5 27.6562C24.8725 27.6562 30.9048 29.7993 31.7931 31.9062ZM20.5598 26.7531C19.2965 26.6506 17.945 26.5938 16.5 26.5938C15.055 26.5938 13.7035 26.6506 12.4402 26.7531L14.2034 22.3438H18.7966L20.5598 26.7531ZM20.75 21.2812V17.0312C20.75 15.9041 20.3022 14.8231 19.5052 14.026C18.7082 13.229 17.6272 12.7812 16.5 12.7812C15.3728 12.7812 14.2918 13.229 13.4948 14.026C12.6978 14.8231 12.25 15.9041 12.25 17.0312V21.2812H11.1875V11.7188H21.8125V21.2812H20.75ZM22.875 23.4062V11.7188H23.9375V23.4062H22.875ZM31.375 23.4062H27.125C26.9841 23.4062 26.849 23.3503 26.7493 23.2507C26.6497 23.151 26.5938 23.0159 26.5938 22.875C26.5947 22.6131 26.6934 22.3609 26.8705 22.1679C26.9583 22.0704 27.0069 21.9438 27.0069 21.8125C27.0069 21.6812 26.9583 21.5546 26.8705 21.4571C26.7593 21.3362 26.6781 21.1908 26.6333 21.0328C26.5886 20.8747 26.5816 20.7083 26.6129 20.5471C26.6556 20.3464 26.7541 20.1618 26.897 20.0147C27.04 19.8675 27.2216 19.7637 27.4209 19.7151C27.498 19.6969 27.577 19.6876 27.6562 19.6875C27.8435 19.6885 28.027 19.7399 28.1875 19.8363C28.2686 19.8835 28.3608 19.9083 28.4547 19.9083C28.5486 19.9083 28.6408 19.8835 28.7219 19.8363C28.9465 19.6994 29.2153 19.6547 29.4721 19.7114C29.624 19.7502 29.7661 19.8207 29.8889 19.9183C30.0117 20.0159 30.1124 20.1384 30.1845 20.2777C30.2577 20.4025 30.3013 20.5425 30.3119 20.6868C30.3225 20.8312 30.2998 20.976 30.2456 21.1102C30.2155 21.193 30.2065 21.282 30.2194 21.3692C30.2323 21.4564 30.2666 21.539 30.3194 21.6096C30.3712 21.6811 30.4405 21.7383 30.5207 21.7754C30.6009 21.8126 30.6892 21.8287 30.7773 21.8221C30.7906 21.8221 30.8305 21.8146 30.8453 21.813C31.1271 21.813 31.3974 21.925 31.5966 22.1242C31.7959 22.3235 31.9078 22.5937 31.9078 22.8755C31.9078 22.9454 31.8939 23.0145 31.8671 23.079C31.8403 23.1435 31.801 23.2021 31.7515 23.2514C31.702 23.3007 31.6433 23.3398 31.5787 23.3663C31.5141 23.3929 31.4449 23.4065 31.375 23.4062ZM30.8438 19.3767C30.5473 19.0247 30.145 18.778 29.6968 18.6733C29.2807 18.5808 28.8462 18.6196 28.4531 18.7844C28.0503 18.6141 27.6036 18.5769 27.1781 18.6781C26.7779 18.774 26.4136 18.9826 26.1283 19.2792C25.843 19.5758 25.6487 19.9479 25.5684 20.3516C25.5127 20.6606 25.5265 20.9782 25.6088 21.2812H25V9.0625C25 8.97899 24.9804 8.89665 24.9426 8.82216C24.9049 8.74767 24.8501 8.68314 24.7827 8.63378L24.643 8.53125H30.8438V19.3767Z" fill="#616161"/>
</svg>
